<svg xmlns="http://www.w3.org/2000/svg" width="16.56" height="16.56" viewBox="0 0 16.56 16.56">
  <path id="pen-to-square-solid" d="M15.412,5.812a1.828,1.828,0,0,0-2.588,0l-.984.98,3.2,3.2.984-.984a1.828,1.828,0,0,0,0-2.588ZM5.634,13a1.806,1.806,0,0,0-.441.716l-.967,2.9a.788.788,0,0,0,.19.8.778.778,0,0,0,.8.19l2.9-.967a1.852,1.852,0,0,0,.716-.441L14.3,10.734l-3.2-3.2Zm-2.5-5.807A3.138,3.138,0,0,0,0,10.332V18.7a3.138,3.138,0,0,0,3.137,3.137H11.5A3.138,3.138,0,0,0,14.641,18.7V15.56a1.046,1.046,0,0,0-2.092,0V18.7A1.045,1.045,0,0,1,11.5,19.744H3.137A1.045,1.045,0,0,1,2.092,18.7V10.332A1.045,1.045,0,0,1,3.137,9.286H6.275a1.046,1.046,0,1,0,0-2.092Z" transform="translate(0 -5.275)" fill="#003da5"/>
</svg>
