<svg id="Layer_2" data-name="Layer 2" xmlns="http://www.w3.org/2000/svg" width="17" height="17.531" viewBox="0 0 17 17.531">
  <g id="Icons">
    <g id="Grupo_1630" data-name="Grupo 1630">
      <rect id="Rectángulo_804" data-name="Rectángulo 804" width="11.224" height="11.224" fill="none"/>
      <path id="Trazado_217" data-name="Trazado 217" d="M13.077,11.69h-6.2a.775.775,0,1,1,0-1.55h6.2a.775.775,0,1,1,0,1.55Zm-6.2,1.55a.775.775,0,0,0,0,1.55h3.1a.775.775,0,0,0,0-1.55Zm9.3-1.938a.775.775,0,0,0-.775.775V17.5H4.55V4.326H8.426a.775.775,0,1,0,0-1.55H3.775A.775.775,0,0,0,3,3.55V18.279a.775.775,0,0,0,.775.775h12.4a.775.775,0,0,0,.775-.775v-6.2A.775.775,0,0,0,16.178,11.3Zm2.868-.233a.736.736,0,0,1-1.085,0L15.984,9.093h0a4.031,4.031,0,0,1-2.132.659A3.915,3.915,0,0,1,11.1,8.589H6.876a.775.775,0,0,1,0-1.55H10.17a3.837,3.837,0,0,1-.194-1.163,3.876,3.876,0,1,1,7.752,0,4.031,4.031,0,0,1-.62,2.132H17.07l1.977,1.977a.736.736,0,0,1,0,1.085ZM12.5,7.039a.349.349,0,0,1,.388-.388h1.55s.291-.291,0-.388a4.507,4.507,0,0,0-1.163,0,.775.775,0,0,1-.775-.775V5.1a.775.775,0,0,1,.775-.775h.194V3.589a2.326,2.326,0,0,0,0,4.574V7.426h-.581a.349.349,0,0,1-.388-.388Zm3.682-1.163A2.326,2.326,0,0,0,14.24,3.589v.736h.581a.349.349,0,0,1,.388.388.349.349,0,0,1-.388.388h-1.55v.388h1.163a.775.775,0,0,1,.775.775v.388a.775.775,0,0,1-.775.775H14.24v.736l.62-.194.233-.116a.039.039,0,0,1,.039-.039L15.4,7.62a.039.039,0,0,1,.039-.039l.233-.233h0l.194-.31h0l.078-.155A2.132,2.132,0,0,0,16.178,5.876Z" transform="translate(-2.285 -1.523)" fill="#fff"/>
    </g>
  </g>
</svg>
